<svg width="32" height="32" viewBox="0 0 32 32" fill="none" xmlns="http://www.w3.org/2000/svg">
<path fill-rule="evenodd" clip-rule="evenodd" d="M30 16C30 23.732 23.732 30 16 30C8.26801 30 2 23.732 2 16C2 8.26801 8.26801 2 16 2C23.732 2 30 8.26801 30 16ZM32 16C32 24.8366 24.8366 32 16 32C7.16344 32 0 24.8366 0 16C0 7.16344 7.16344 0 16 0C24.8366 0 32 7.16344 32 16ZM20.71 17.2919C20.3102 16.8924 19.6901 16.8924 19.2903 17.2919L16.9943 19.5839L16.9941 9.9989C16.9941 9.43952 16.5544 9 15.9947 9C15.435 9 14.9952 9.43952 14.9952 9.9989L14.9954 19.5639L12.7195 17.2919C12.3197 16.8924 11.6996 16.8924 11.2998 17.2919C10.9001 17.6915 10.9001 18.3107 11.2998 18.7103L15.295 22.7003C15.5077 22.87 15.714 23 15.9948 23C16.239 23 16.5372 22.897 16.6947 22.7003L20.69 18.7103C21.0898 18.3107 21.1098 17.6915 20.71 17.2919Z" fill="url(#paint0_linear_3454_11508)"/>
<defs>
<linearGradient id="paint0_linear_3454_11508" x1="-1.46137e-06" y1="16.9412" x2="32" y2="16.9412" gradientUnits="userSpaceOnUse">
<stop stop-color="#8673E5"/>
<stop offset="1" stop-color="#0099E5"/>
</linearGradient>
</defs>
</svg>
