<svg width="32" height="32" viewBox="0 0 32 32" fill="none" xmlns="http://www.w3.org/2000/svg">
<path fill-rule="evenodd" clip-rule="evenodd" d="M30 16C30 23.732 23.732 30 16 30C8.26801 30 2 23.732 2 16C2 8.26801 8.26801 2 16 2C23.732 2 30 8.26801 30 16ZM32 16C32 24.8366 24.8366 32 16 32C7.16344 32 0 24.8366 0 16C0 7.16344 7.16344 0 16 0C24.8366 0 32 7.16344 32 16ZM13.2933 20.7072C13.4882 20.9023 13.7443 21.0002 14.0002 21.0002C14.2562 21.0002 14.5122 20.9023 14.7073 20.7072L22.7072 12.7072C23.0982 12.3162 23.0982 11.6842 22.7072 11.2933C22.3162 10.9023 21.6842 10.9023 21.2933 11.2933L14.0002 18.5863L10.7072 15.2933C10.3162 14.9023 9.68425 14.9023 9.29325 15.2933C8.90225 15.6842 8.90225 16.3162 9.29325 16.7073L13.2933 20.7072Z" fill="url(#paint0_linear_3454_11859)"/>
<defs>
<linearGradient id="paint0_linear_3454_11859" x1="-1.46137e-06" y1="16.9412" x2="32" y2="16.9412" gradientUnits="userSpaceOnUse">
<stop stop-color="#8673E5"/>
<stop offset="1" stop-color="#0099E5"/>
</linearGradient>
</defs>
</svg>
