<svg width="12" height="12" viewBox="0 0 12 12" fill="none" xmlns="http://www.w3.org/2000/svg">
<path fill-rule="evenodd" clip-rule="evenodd" d="M10.39 8.89H8.39C8.11 8.89 7.89 9.11 7.89 9.39C7.89 9.67 8.11 9.89 8.39 9.89H9.11C8.23 10.6 7.15 11 6 11C3.24 11 0.999999 8.76 0.999999 6C0.999999 5.72 0.78 5.5 0.5 5.5C0.22 5.5 0 5.72 0 6C0 9.31 2.69 12 6 12C7.44 12 8.81 11.49 9.89 10.56V11.39C9.89 11.67 10.11 11.89 10.39 11.89C10.67 11.89 10.89 11.67 10.89 11.39V9.39C10.89 9.11 10.67 8.89 10.39 8.89ZM6 0C4.56 0 3.2 0.51 2.11 1.44V0.61C2.11 0.33 1.89 0.11 1.61 0.11C1.33 0.11 1.11 0.33 1.11 0.61V2.61C1.11 2.89 1.33 3.11 1.61 3.11H3.61C3.89 3.11 4.11 2.89 4.11 2.61C4.11 2.33 3.89 2.11 3.61 2.11H2.89C3.77 1.4 4.85 1 6 1C8.76 1 11 3.24 11 6C11 6.28 11.22 6.5 11.5 6.5C11.78 6.5 12 6.28 12 6C12 2.69 9.31 0 6 0Z" fill="#2C2F32"/>
</svg>
