<svg width="16" height="16" viewBox="0 0 16 16" fill="none" xmlns="http://www.w3.org/2000/svg">
<path fill-rule="evenodd" clip-rule="evenodd" d="M12 13.9999V12.4C12 11.5599 12 11.1399 11.8365 10.819C11.6927 10.5368 11.4632 10.3073 11.181 10.1635C10.8601 10 10.4401 10 9.6 10H6.4C5.55992 10 5.13988 10 4.81901 10.1635C4.53677 10.3073 4.3073 10.5368 4.16349 10.819C4 11.1399 4 11.5599 4 12.4V13.9999C3.5349 13.9995 3.21698 13.9964 2.96784 13.9761C2.69617 13.9539 2.59545 13.9162 2.54601 13.891C2.35785 13.7951 2.20487 13.6422 2.10899 13.454C2.0838 13.4045 2.04612 13.3038 2.02393 13.0322C2.00078 12.7488 2 12.3766 2 11.8V4.2C2 3.62345 2.00078 3.25117 2.02393 2.96784C2.04612 2.69617 2.0838 2.59545 2.10899 2.54601C2.20487 2.35785 2.35785 2.20487 2.54601 2.10899C2.59545 2.0838 2.69617 2.04612 2.96784 2.02393C3.25117 2.00078 3.62345 2 4.2 2H9.67452C10.2113 2 10.3167 2.00643 10.405 2.02763C10.5071 2.05213 10.6046 2.09253 10.6941 2.14736C10.7715 2.19482 10.8506 2.2648 11.2302 2.64437L13.3556 4.76985C13.7352 5.14941 13.8052 5.22849 13.8526 5.30593C13.9075 5.3954 13.9479 5.49295 13.9724 5.59498C13.9936 5.6833 14 5.7887 14 6.32548V11.8C14 12.3766 13.9992 12.7488 13.9761 13.0322C13.9539 13.3038 13.9162 13.4045 13.891 13.454C13.7951 13.6422 13.6422 13.7951 13.454 13.891C13.4045 13.9162 13.3038 13.9539 13.0322 13.9761C12.783 13.9964 12.4651 13.9995 12 13.9999ZM12 14.9999C12.9883 14.9992 13.5064 14.9866 13.908 14.782C14.2843 14.5903 14.5903 14.2843 14.782 13.908C15 13.4802 15 12.9201 15 11.8V6.32548C15 5.8363 15 5.59171 14.9447 5.36154C14.8957 5.15746 14.8149 4.96237 14.7053 4.78343C14.5816 4.5816 14.4086 4.40865 14.0627 4.06274L11.9373 1.93726C11.5914 1.59135 11.4184 1.4184 11.2166 1.29472C11.0376 1.18506 10.8425 1.10425 10.6385 1.05526C10.4083 1 10.1637 1 9.67452 1H4.2C3.0799 1 2.51984 1 2.09202 1.21799C1.71569 1.40973 1.40973 1.71569 1.21799 2.09202C1 2.51984 1 3.0799 1 4.2V11.8C1 12.9201 1 13.4802 1.21799 13.908C1.40973 14.2843 1.71569 14.5903 2.09202 14.782C2.49359 14.9866 3.01165 14.9992 4 14.9999V15H4.2H5H11H11.8H12V14.9999ZM5 14H11V12.4C11 11.9635 10.9992 11.6962 10.9829 11.4962C10.9753 11.4031 10.9657 11.3467 10.9577 11.3125C10.9538 11.2962 10.9506 11.2862 10.9487 11.2808C10.9468 11.2756 10.9457 11.2734 10.9455 11.273C10.8976 11.1789 10.8211 11.1024 10.727 11.0545C10.7266 11.0543 10.7244 11.0532 10.7192 11.0513C10.7138 11.0494 10.7038 11.0462 10.6875 11.0423C10.6533 11.0343 10.5969 11.0247 10.5038 11.0171C10.3038 11.0008 10.0365 11 9.6 11H6.4C5.96346 11 5.6962 11.0008 5.49623 11.0171C5.40308 11.0247 5.34673 11.0343 5.3125 11.0423C5.29622 11.0462 5.2862 11.0494 5.28079 11.0513C5.27559 11.0532 5.27341 11.0543 5.273 11.0545C5.17892 11.1024 5.10243 11.1789 5.0545 11.273C5.05429 11.2734 5.05318 11.2756 5.05133 11.2808C5.04939 11.2862 5.04618 11.2962 5.04235 11.3125C5.03429 11.3467 5.02473 11.4031 5.01712 11.4962C5.00078 11.6962 5 11.9635 5 12.4V14ZM4 4.5C4 4.22386 4.22386 4 4.5 4C4.77614 4 5 4.22386 5 4.5V6.5C5 6.77614 4.77614 7 4.5 7C4.22386 7 4 6.77614 4 6.5V4.5Z" fill="#2C2F32" fill-opacity="0.8"/>
</svg>
