<svg width="24" height="24" viewBox="0 0 24 24" fill="none" xmlns="http://www.w3.org/2000/svg">
<path d="M11.5042 4.13492L5.49575 7.63273C5.18839 7.81262 5 8.14241 5 8.50219L5 15.4978C5 15.8576 5.18839 16.1874 5.49575 16.3673L11.5042 19.8651C11.8116 20.045 12.1884 20.045 12.4958 19.8651L18.5042 16.3673C18.8116 16.1874 19 15.8576 19 15.4978V8.50219C19 8.14241 18.8116 7.81262 18.5042 7.63273L12.4958 4.13492C12.1884 3.95503 11.8116 3.95503 11.5042 4.13492ZM18.0085 8.50219V15.4978L12 18.9956L5.9915 15.4978L5.9915 8.50219L12 5.00437L18.0085 8.50219ZM9.0255 12C9.0255 13.659 10.3541 14.9981 12 14.9981C13.6459 14.9981 14.9745 13.659 14.9745 12C14.9745 10.341 13.6459 9.00187 12 9.00187C10.3541 9.00187 9.0255 10.341 9.0255 12ZM13.983 12C13.983 13.0993 13.0907 13.9988 12 13.9988C10.9093 13.9988 10.017 13.0993 10.017 12C10.017 10.9007 10.9093 10.0012 12 10.0012C13.0907 10.0012 13.983 10.9007 13.983 12Z" fill="#2C2F32" fill-opacity="0.8"/>
</svg>
