<svg width="32" height="32" viewBox="0 0 32 32" fill="none" xmlns="http://www.w3.org/2000/svg">
<path fill-rule="evenodd" clip-rule="evenodd" d="M30 16C30 23.732 23.732 30 16 30C8.26801 30 2 23.732 2 16C2 8.26801 8.26801 2 16 2C23.732 2 30 8.26801 30 16ZM32 16C32 24.8366 24.8366 32 16 32C7.16344 32 0 24.8366 0 16C0 7.16344 7.16344 0 16 0C24.8366 0 32 7.16344 32 16ZM15 11C15 10.4477 15.4477 10 16 10C16.5523 10 17 10.4477 17 11V15H21C21.5523 15 22 15.4477 22 16C22 16.5523 21.5523 17 21 17H17V21C17 21.5523 16.5523 22 16 22C15.4477 22 15 21.5523 15 21V17H11C10.4477 17 10 16.5523 10 16C10 15.4477 10.4477 15 11 15H15V11Z" fill="url(#paint0_linear_3458_12247)"/>
<defs>
<linearGradient id="paint0_linear_3458_12247" x1="-1.46137e-06" y1="16.9412" x2="32" y2="16.9412" gradientUnits="userSpaceOnUse">
<stop stop-color="#8673E5"/>
<stop offset="1" stop-color="#0099E5"/>
</linearGradient>
</defs>
</svg>
