<svg width="16" height="16" viewBox="0 0 16 16" fill="none" xmlns="http://www.w3.org/2000/svg">
<path d="M9.50198 14H6.50198C6.22198 14 6.00198 14.22 6.00198 14.5C6.00198 14.78 6.22198 15 6.50198 15H9.50198C9.78198 15 10.002 14.78 10.002 14.5C10.002 14.22 9.78198 14 9.50198 14ZM8.00198 1C7.61198 1 7.21198 1.05 6.81198 1.14C5.02198 1.55 3.59198 2.97 3.15198 4.76C2.71198 6.54 3.24198 8.35 4.55198 9.6C5.02198 10.05 5.23198 10.68 5.31198 11.14L5.44198 11.8C5.58198 12.5 6.20198 13.01 6.91198 13.01H9.09198C9.81198 13.01 10.422 12.5 10.562 11.8L10.702 11.08C10.782 10.66 10.982 10.06 11.452 9.62C12.452 8.67 13.002 7.39 13.002 6.02C13.002 3.24 10.762 1 8.00198 1ZM10.762 8.88C10.202 9.41 9.87198 10.13 9.72198 10.88L9.58198 11.6C9.53198 11.83 9.33198 12 9.09198 12H6.91198C6.67198 12 6.47198 11.83 6.42198 11.6L6.29198 10.94C6.14198 10.17 5.81198 9.42 5.23198 8.87C4.25198 7.94 3.74198 6.52 4.12198 4.99C4.47198 3.58 5.62198 2.43 7.04198 2.11C7.37198 2.03 7.69198 2 8.00198 2C10.212 2 12.002 3.79 12.002 6C12.002 7.14 11.522 8.15 10.762 8.88Z" fill="#2C2F32"/>
</svg>
