<svg width="10" height="14" viewBox="0 0 10 14" fill="none" xmlns="http://www.w3.org/2000/svg">
<path fill-rule="evenodd" clip-rule="evenodd" d="M8.29033 8.29194C8.69011 7.89238 9.31018 7.89238 9.70996 8.29194C10.1098 8.6915 10.0898 9.31072 9.68998 9.71028L5.69467 13.7003C5.53723 13.897 5.23904 14 4.99485 14C4.71397 14 4.50766 13.87 4.29504 13.7003L0.29984 9.71028C-0.0999467 9.31072 -0.0999467 8.6915 0.29984 8.29194C0.699627 7.89238 1.3197 7.89238 1.71948 8.29194L3.99538 10.5639L3.9952 0.998901C3.9952 0.439523 4.43497 0 4.99467 0C5.55437 0 5.99413 0.439523 5.99413 0.998901L5.99432 10.5839L8.29033 8.29194Z" fill="#F7F8F8"/>
</svg>
