<svg width="32" height="32" viewBox="0 0 32 32" fill="none" xmlns="http://www.w3.org/2000/svg">
<path fill-rule="evenodd" clip-rule="evenodd" d="M30 16C30 23.732 23.732 30 16 30C8.26801 30 2 23.732 2 16C2 8.26801 8.26801 2 16 2C23.732 2 30 8.26801 30 16ZM32 16C32 24.8366 24.8366 32 16 32C7.16344 32 0 24.8366 0 16C0 7.16344 7.16344 0 16 0C24.8366 0 32 7.16344 32 16ZM17.9852 11.2432L16.9932 18.1632C16.8632 19.2872 15.1312 19.2712 15.0072 18.1632L14.0152 11.2432C13.7032 8.25325 18.2972 8.25125 17.9852 11.2432ZM17.25 21.75C17.25 21.0597 16.6903 20.5 16 20.5C15.3097 20.5 14.75 21.0597 14.75 21.75C14.75 22.4403 15.3097 23 16 23C16.6903 23 17.25 22.4403 17.25 21.75Z" fill="url(#paint0_linear_3162_32723)"/>
<defs>
<linearGradient id="paint0_linear_3162_32723" x1="0" y1="15.0588" x2="32" y2="15.0588" gradientUnits="userSpaceOnUse">
<stop stop-color="#FFB31A"/>
<stop offset="1" stop-color="#FE8C19"/>
</linearGradient>
</defs>
</svg>
